<svg width="1200" height="675" viewBox="0 0 1200 675" fill="none" xmlns="http://www.w3.org/2000/svg" font-family="'Segoe UI',system-ui,sans-serif">
  <rect width="1200" height="675" fill="#1E1B4B"/>
  <radialGradient id="abg1" cx="0.82" cy="0.14" r="0.7">
    <stop offset="0" stop-color="#6366F1" stop-opacity="0.40"/>
    <stop offset="1" stop-color="#6366F1" stop-opacity="0"/>
  </radialGradient>
  <radialGradient id="abg2" cx="0.1" cy="0.85" r="0.75">
    <stop offset="0" stop-color="#22D3EE" stop-opacity="0.20"/>
    <stop offset="1" stop-color="#22D3EE" stop-opacity="0"/>
  </radialGradient>
  <rect width="1200" height="675" fill="url(#abg1)"/>
  <rect width="1200" height="675" fill="url(#abg2)"/>

  <!-- dense 2x2 experiment dashboard filling the card -->
  <g opacity="0.97">
    <!-- TILE 1: A vs B bars with CI caps -->
    <rect x="90" y="70" width="490" height="225" rx="14" fill="#2A2660" stroke="#433d8f" stroke-width="1.5"/>
    <rect x="112" y="92" width="150" height="12" rx="5" fill="#5750a8"/>
    <line x1="150" y1="265" x2="540" y2="265" stroke="#4b4699" stroke-width="2"/>
    <rect x="220" y="170" width="90" height="95" rx="6" fill="#94A3B8"/>
    <line x1="265" y1="155" x2="265" y2="185" stroke="#E2E8F0" stroke-width="3"/>
    <line x1="253" y1="155" x2="277" y2="155" stroke="#E2E8F0" stroke-width="3"/>
    <line x1="253" y1="185" x2="277" y2="185" stroke="#E2E8F0" stroke-width="3"/>
    <text x="265" y="288" text-anchor="middle" font-size="18" font-weight="700" fill="#CBD5E1">A</text>
    <rect x="380" y="125" width="90" height="140" rx="6" fill="#6366F1"/>
    <line x1="425" y1="110" x2="425" y2="140" stroke="#C7D2FE" stroke-width="3"/>
    <line x1="413" y1="110" x2="437" y2="110" stroke="#C7D2FE" stroke-width="3"/>
    <line x1="413" y1="140" x2="437" y2="140" stroke="#C7D2FE" stroke-width="3"/>
    <text x="425" y="288" text-anchor="middle" font-size="18" font-weight="700" fill="#C7D2FE">B</text>

    <!-- TILE 2: significance curve -->
    <rect x="600" y="70" width="510" height="225" rx="14" fill="#2A2660" stroke="#433d8f" stroke-width="1.5"/>
    <rect x="622" y="92" width="170" height="12" rx="5" fill="#5750a8"/>
    <path d="M650 250 C 730 250, 760 140, 855 140 C 950 140, 980 250, 1060 250"
      fill="#6366F1" fill-opacity="0.18" stroke="#818CF8" stroke-width="3"/>
    <line x1="855" y1="140" x2="855" y2="250" stroke="#C7D2FE" stroke-width="1.6" stroke-dasharray="5 4"/>
    <line x1="1010" y1="250" x2="1010" y2="175" stroke="#22D3EE" stroke-width="1.6" stroke-dasharray="5 4"/>

    <!-- TILE 3: CI / uplift forest -->
    <rect x="90" y="315" width="490" height="215" rx="14" fill="#2A2660" stroke="#433d8f" stroke-width="1.5"/>
    <rect x="112" y="337" width="150" height="12" rx="5" fill="#5750a8"/>
    <line x1="330" y1="375" x2="330" y2="505" stroke="#4b4699" stroke-width="1.5" stroke-dasharray="4 4"/>
    <line x1="190" y1="390" x2="430" y2="390" stroke="#818CF8" stroke-width="3"/><circle cx="360" cy="390" r="9" fill="#6366F1"/>
    <line x1="230" y1="435" x2="470" y2="435" stroke="#818CF8" stroke-width="3"/><circle cx="400" cy="435" r="9" fill="#6366F1"/>
    <line x1="170" y1="480" x2="410" y2="480" stroke="#818CF8" stroke-width="3"/><circle cx="320" cy="480" r="9" fill="#6366F1"/>

    <!-- TILE 4: KPI cards -->
    <rect x="600" y="315" width="510" height="215" rx="14" fill="#2A2660" stroke="#433d8f" stroke-width="1.5"/>
    <rect x="624" y="345" width="220" height="76" rx="10" fill="#322d73"/>
    <rect x="644" y="363" width="80" height="22" rx="5" fill="#22D3EE"/>
    <rect x="644" y="395" width="150" height="9" rx="4" fill="#4b4699"/>
    <rect x="866" y="345" width="220" height="76" rx="10" fill="#322d73"/>
    <rect x="886" y="363" width="64" height="22" rx="5" fill="#818CF8"/>
    <rect x="886" y="395" width="150" height="9" rx="4" fill="#4b4699"/>
    <rect x="624" y="437" width="462" height="70" rx="10" fill="#322d73"/>
    <rect x="644" y="455" width="120" height="20" rx="5" fill="#6366F1"/>
    <rect x="644" y="485" width="300" height="9" rx="4" fill="#4b4699"/>
  </g>
</svg>
