<svg width="1160" height="408" viewBox="0 0 1160 408" fill="none" xmlns="http://www.w3.org/2000/svg" font-family="'Segoe UI', system-ui, sans-serif">
  <rect width="1160" height="408" fill="#FFFFFF"/>
  <text x="40" y="40" font-size="19" font-weight="700" fill="#1E293B">Finnish Electricity Market Analytics — Databricks Lakehouse</text>
  <text x="40" y="62" font-size="12.5" fill="#94A3B8">Code-first PySpark medallion · real Finnish open data · Spark ML demand forecast</text>

  <!-- ===== SOURCES ===== -->
  <rect x="40" y="100" width="190" height="184" rx="8" fill="#EFF4FB" stroke="#B9CDE8" stroke-width="1.5"/>
  <rect x="40" y="100" width="190" height="28" rx="8" fill="#3B6FB5"/>
  <rect x="40" y="114" width="190" height="14" fill="#3B6FB5"/>
  <text x="54" y="119" font-size="12.5" font-weight="700" fill="#FFFFFF">SOURCES · open APIs</text>
  <text x="54" y="152" font-size="12" font-weight="700" fill="#1E3A5F">Fingrid</text>
  <text x="54" y="168" font-size="10.5" fill="#64748B">consumption · production mix</text>
  <text x="54" y="194" font-size="12" font-weight="700" fill="#1E3A5F">ENTSO-E</text>
  <text x="54" y="210" font-size="10.5" fill="#64748B">day-ahead spot price</text>
  <text x="54" y="236" font-size="12" font-weight="700" fill="#1E3A5F">FMI</text>
  <text x="54" y="252" font-size="10.5" fill="#64748B">temperature · wind speed</text>
  <text x="54" y="274" font-size="10" fill="#94A3B8">Python · REST / WFS</text>

  <!-- ===== BRONZE ===== -->
  <rect x="270" y="100" width="190" height="184" rx="8" fill="#FBF1E8" stroke="#E6C39C" stroke-width="1.5"/>
  <rect x="270" y="100" width="190" height="28" rx="8" fill="#B07A3C"/>
  <rect x="270" y="114" width="190" height="14" fill="#B07A3C"/>
  <text x="284" y="119" font-size="12.5" font-weight="700" fill="#FFFFFF">BRONZE · raw</text>
  <text x="284" y="152" font-size="11.5" fill="#475569">As-fetched, untouched</text>
  <text x="284" y="174" font-size="11.5" fill="#475569">8 Delta tables</text>
  <text x="284" y="194" font-size="11.5" fill="#475569">1.2M+ rows</text>
  <text x="284" y="252" font-size="10.5" fill="#94A3B8">PySpark: parse ·</text>
  <text x="284" y="268" font-size="10.5" fill="#94A3B8">type-cast · dedupe</text>

  <!-- ===== SILVER ===== -->
  <rect x="500" y="100" width="190" height="184" rx="8" fill="#EEF2F6" stroke="#C2CCD6" stroke-width="1.5"/>
  <rect x="500" y="100" width="190" height="28" rx="8" fill="#7E8C9A"/>
  <rect x="500" y="114" width="190" height="14" fill="#7E8C9A"/>
  <text x="514" y="119" font-size="12.5" font-weight="700" fill="#FFFFFF">SILVER · conformed</text>
  <text x="514" y="152" font-size="11.5" fill="#475569">silver_energy_hourly</text>
  <text x="514" y="172" font-size="11.5" fill="#475569">+ dim_date</text>
  <text x="514" y="216" font-size="10.5" fill="#94A3B8">resample → hourly ·</text>
  <text x="514" y="232" font-size="10.5" fill="#94A3B8">units → MWh/h · join ·</text>
  <text x="514" y="248" font-size="10.5" fill="#94A3B8">Helsinki calendar</text>

  <!-- ===== GOLD ===== -->
  <rect x="730" y="100" width="190" height="184" rx="8" fill="#FCF7E3" stroke="#E4D08A" stroke-width="1.5"/>
  <rect x="730" y="100" width="190" height="28" rx="8" fill="#C9A227"/>
  <rect x="730" y="114" width="190" height="14" fill="#C9A227"/>
  <text x="744" y="119" font-size="12.5" font-weight="700" fill="#FFFFFF">GOLD · marts + ML</text>
  <text x="744" y="152" font-size="11.5" fill="#475569">gold_daily</text>
  <text x="744" y="172" font-size="11.5" fill="#475569">gold_hour_of_day</text>
  <text x="744" y="192" font-size="11.5" fill="#475569">gold_demand_forecast</text>
  <text x="744" y="248" font-size="10.5" fill="#94A3B8">Spark ML GBT ·</text>
  <text x="744" y="264" font-size="10.5" fill="#94A3B8">MAE 3.8% · R² 0.74</text>

  <!-- ===== DASHBOARD ===== -->
  <rect x="960" y="100" width="160" height="184" rx="8" fill="#EFF7F4" stroke="#B9DBCF" stroke-width="1.5"/>
  <rect x="960" y="100" width="160" height="28" rx="8" fill="#2E8B6F"/>
  <rect x="960" y="114" width="160" height="14" fill="#2E8B6F"/>
  <text x="974" y="119" font-size="12.5" font-weight="700" fill="#FFFFFF">AI / BI</text>
  <text x="974" y="152" font-size="11.5" fill="#475569">Databricks</text>
  <text x="974" y="170" font-size="11.5" fill="#475569">dashboard</text>
  <text x="974" y="206" font-size="10.5" fill="#94A3B8">balance · price ·</text>
  <text x="974" y="222" font-size="10.5" fill="#94A3B8">mix · profile ·</text>
  <text x="974" y="238" font-size="10.5" fill="#94A3B8">forecast vs actual</text>

  <!-- flow arrows -->
  <g stroke="#94A3B8" stroke-width="2" marker-end="url(#arr)">
    <line x1="230" y1="192" x2="268" y2="192"/>
    <line x1="460" y1="192" x2="498" y2="192"/>
    <line x1="690" y1="192" x2="728" y2="192"/>
    <line x1="920" y1="192" x2="958" y2="192"/>
  </g>

  <!-- stack strip -->
  <rect x="40" y="318" width="1080" height="56" rx="8" fill="#F1F5F9" stroke="#E2E8F0"/>
  <text x="58" y="342" font-size="11.5" font-weight="700" fill="#3B6FB5">STACK</text>
  <text x="58" y="361" font-size="11.5" fill="#475569">Databricks (serverless) · PySpark · Spark ML · Delta Lake · Unity Catalog · SQL · Python · REST / WFS APIs</text>

  <defs>
    <marker id="arr" markerWidth="9" markerHeight="9" refX="7" refY="3" orient="auto" markerUnits="strokeWidth">
      <path d="M0,0 L7,3 L0,6 Z" fill="#94A3B8"/>
    </marker>
  </defs>
</svg>
