<svg width="1200" height="675" viewBox="0 0 1200 675" fill="none" xmlns="http://www.w3.org/2000/svg">
  <rect width="1200" height="675" fill="#06302C"/>
  <radialGradient id="fg1" cx="0.8" cy="0.18" r="0.6">
    <stop offset="0" stop-color="#22C5AA" stop-opacity="0.28"/>
    <stop offset="1" stop-color="#22C5AA" stop-opacity="0"/>
  </radialGradient>
  <radialGradient id="fg2" cx="0.15" cy="0.9" r="0.7">
    <stop offset="0" stop-color="#0E7C6B" stop-opacity="0.45"/>
    <stop offset="1" stop-color="#0E7C6B" stop-opacity="0"/>
  </radialGradient>
  <rect width="1200" height="675" fill="url(#fg1)"/>
  <rect width="1200" height="675" fill="url(#fg2)"/>

  <!-- ── star schema (center-right) ── -->
  <g opacity="0.95">
    <!-- connectors -->
    <g stroke="#3FBFA6" stroke-width="2.5" opacity="0.6">
      <line x1="760" y1="150" x2="760" y2="250"/>
      <line x1="560" y1="300" x2="690" y2="300"/>
      <line x1="830" y1="300" x2="960" y2="300"/>
      <line x1="760" y1="350" x2="760" y2="440"/>
    </g>
    <!-- center fact -->
    <rect x="690" y="250" width="140" height="100" rx="12" fill="#0E7C6B" stroke="#3FBFA6" stroke-width="2"/>
    <rect x="706" y="270" width="108" height="9" rx="4" fill="#7FE6D2"/>
    <rect x="706" y="288" width="80" height="7" rx="3" fill="#2E9E8A"/>
    <rect x="706" y="303" width="92" height="7" rx="3" fill="#2E9E8A"/>
    <rect x="706" y="318" width="70" height="7" rx="3" fill="#2E9E8A"/>
    <!-- dim top -->
    <rect x="700" y="80" width="120" height="70" rx="10" fill="#0A5247" stroke="#2E9E8A" stroke-width="1.5"/>
    <rect x="714" y="98" width="74" height="8" rx="3" fill="#5BD3BD"/>
    <rect x="714" y="116" width="60" height="6" rx="3" fill="#2E9E8A"/>
    <rect x="714" y="130" width="68" height="6" rx="3" fill="#2E9E8A"/>
    <!-- dim left -->
    <rect x="430" y="262" width="120" height="76" rx="10" fill="#0A5247" stroke="#2E9E8A" stroke-width="1.5"/>
    <rect x="444" y="280" width="74" height="8" rx="3" fill="#5BD3BD"/>
    <rect x="444" y="298" width="60" height="6" rx="3" fill="#2E9E8A"/>
    <rect x="444" y="312" width="66" height="6" rx="3" fill="#2E9E8A"/>
    <!-- dim right -->
    <rect x="960" y="262" width="120" height="76" rx="10" fill="#0A5247" stroke="#2E9E8A" stroke-width="1.5"/>
    <rect x="974" y="280" width="74" height="8" rx="3" fill="#5BD3BD"/>
    <rect x="974" y="298" width="60" height="6" rx="3" fill="#2E9E8A"/>
    <rect x="974" y="312" width="66" height="6" rx="3" fill="#2E9E8A"/>
    <!-- dim bottom (date) -->
    <rect x="700" y="440" width="120" height="70" rx="10" fill="#0A5247" stroke="#2E9E8A" stroke-width="1.5"/>
    <rect x="714" y="458" width="74" height="8" rx="3" fill="#5BD3BD"/>
    <rect x="714" y="476" width="60" height="6" rx="3" fill="#2E9E8A"/>
    <rect x="714" y="490" width="68" height="6" rx="3" fill="#2E9E8A"/>
  </g>

  <!-- ── mini chart hint (upper-left) ── -->
  <g opacity="0.5">
    <rect x="90" y="90" width="36" height="70" rx="4" fill="#3FBFA6"/>
    <rect x="138" y="120" width="36" height="40" rx="4" fill="#2E9E8A"/>
    <rect x="186" y="70" width="36" height="90" rx="4" fill="#5BD3BD"/>
    <rect x="234" y="108" width="36" height="52" rx="4" fill="#2E9E8A"/>
  </g>
</svg>
