<svg width="1200" height="675" viewBox="0 0 1200 675" fill="none" xmlns="http://www.w3.org/2000/svg">
  <rect width="1200" height="675" fill="#071845"/>
  <radialGradient id="kg1" cx="0.8" cy="0.16" r="0.6">
    <stop offset="0" stop-color="#3C74D6" stop-opacity="0.3"/>
    <stop offset="1" stop-color="#3C74D6" stop-opacity="0"/>
  </radialGradient>
  <radialGradient id="kg2" cx="0.12" cy="0.9" r="0.7">
    <stop offset="0" stop-color="#0F2F6E" stop-opacity="0.6"/>
    <stop offset="1" stop-color="#0F2F6E" stop-opacity="0"/>
  </radialGradient>
  <rect width="1200" height="675" fill="url(#kg1)"/>
  <rect width="1200" height="675" fill="url(#kg2)"/>

  <!-- floating dashboard panel -->
  <g opacity="0.95">
    <rect x="430" y="70" width="710" height="430" rx="18" fill="#0E2456" stroke="#234a8f" stroke-width="1.5"/>

    <!-- KPI row -->
    <g>
      <rect x="460" y="96" width="150" height="76" rx="10" fill="#13306B"/>
      <rect x="476" y="112" width="58" height="16" rx="4" fill="#5B9BF5"/>
      <rect x="476" y="138" width="96" height="8" rx="4" fill="#2E5294"/>
      <rect x="626" y="96" width="150" height="76" rx="10" fill="#13306B"/>
      <rect x="642" y="112" width="48" height="16" rx="4" fill="#7FD1A8"/>
      <rect x="642" y="138" width="96" height="8" rx="4" fill="#2E5294"/>
      <rect x="792" y="96" width="150" height="76" rx="10" fill="#13306B"/>
      <rect x="808" y="112" width="56" height="16" rx="4" fill="#E59820"/>
      <rect x="808" y="138" width="96" height="8" rx="4" fill="#2E5294"/>
      <rect x="958" y="96" width="152" height="76" rx="10" fill="#13306B"/>
      <rect x="974" y="112" width="52" height="16" rx="4" fill="#5B9BF5"/>
      <rect x="974" y="138" width="94" height="8" rx="4" fill="#2E5294"/>
    </g>

    <!-- horizontal bar chart (regions) -->
    <g>
      <rect x="460" y="196" width="320" height="280" rx="10" fill="#13306B"/>
      <rect x="480" y="214" width="120" height="9" rx="4" fill="#2E5294"/>
      <rect x="480" y="250" width="270" height="20" rx="4" fill="#5B9BF5"/>
      <rect x="480" y="288" width="200" height="20" rx="4" fill="#4785E0"/>
      <rect x="480" y="326" width="150" height="20" rx="4" fill="#3C74D6"/>
      <rect x="480" y="364" width="120" height="20" rx="4" fill="#2E5DB0"/>
    </g>

    <!-- revenue trend (3 lines) -->
    <g>
      <rect x="800" y="196" width="310" height="280" rx="10" fill="#13306B"/>
      <rect x="820" y="214" width="120" height="9" rx="4" fill="#2E5294"/>
      <polyline points="822,420 880,400 938,360 996,340 1054,300 1092,280" fill="none" stroke="#5B9BF5" stroke-width="3.5" stroke-linecap="round" stroke-linejoin="round"/>
      <polyline points="822,400 880,395 938,398 996,390 1054,392 1092,388" fill="none" stroke="#E59820" stroke-width="3" stroke-linecap="round" stroke-linejoin="round"/>
      <polyline points="822,440 880,430 938,432 996,420 1054,418 1092,410" fill="none" stroke="#2DB89A" stroke-width="3" stroke-linecap="round" stroke-linejoin="round"/>
    </g>
  </g>

  <!-- mini bars (upper-left accent) -->
  <g opacity="0.45">
    <rect x="92" y="100" width="34" height="64" rx="4" fill="#5B9BF5"/>
    <rect x="138" y="128" width="34" height="36" rx="4" fill="#3C74D6"/>
    <rect x="184" y="84" width="34" height="80" rx="4" fill="#7FB0F5"/>
  </g>
</svg>
