<svg width="1200" height="675" viewBox="0 0 1200 675" fill="none" xmlns="http://www.w3.org/2000/svg" font-family="'Segoe UI',system-ui,sans-serif">
  <rect width="1200" height="675" fill="#16344A"/>
  <radialGradient id="tg1" cx="0.82" cy="0.14" r="0.7">
    <stop offset="0" stop-color="#4E79A7" stop-opacity="0.42"/>
    <stop offset="1" stop-color="#4E79A7" stop-opacity="0"/>
  </radialGradient>
  <radialGradient id="tg2" cx="0.1" cy="0.85" r="0.75">
    <stop offset="0" stop-color="#F28E2B" stop-opacity="0.20"/>
    <stop offset="1" stop-color="#F28E2B" stop-opacity="0"/>
  </radialGradient>
  <rect width="1200" height="675" fill="url(#tg1)"/>
  <rect width="1200" height="675" fill="url(#tg2)"/>

  <g opacity="0.97">
    <!-- TILE 1: bar chart -->
    <rect x="90" y="70" width="490" height="225" rx="14" fill="#1E4866" stroke="#356287" stroke-width="1.5"/>
    <rect x="112" y="92" width="160" height="12" rx="5" fill="#3a6b91"/>
    <line x1="130" y1="270" x2="555" y2="270" stroke="#356287" stroke-width="2"/>
    <rect x="150" y="200" width="58" height="70" rx="4" fill="#4E79A7"/>
    <rect x="228" y="165" width="58" height="105" rx="4" fill="#4E79A7"/>
    <rect x="306" y="130" width="58" height="140" rx="4" fill="#F28E2B"/>
    <rect x="384" y="180" width="58" height="90" rx="4" fill="#4E79A7"/>
    <rect x="462" y="150" width="58" height="120" rx="4" fill="#4E79A7"/>

    <!-- TILE 2: line chart -->
    <rect x="600" y="70" width="510" height="225" rx="14" fill="#1E4866" stroke="#356287" stroke-width="1.5"/>
    <rect x="622" y="92" width="160" height="12" rx="5" fill="#3a6b91"/>
    <line x1="640" y1="270" x2="1080" y2="270" stroke="#356287" stroke-width="2"/>
    <polyline points="645,235 730,210 815,225 900,175 985,195 1075,140"
      fill="none" stroke="#76B7B2" stroke-width="4" stroke-linecap="round" stroke-linejoin="round"/>
    <polyline points="645,255 730,248 815,240 900,242 985,225 1075,230"
      fill="none" stroke="#E15759" stroke-width="3.5" stroke-linecap="round" stroke-linejoin="round"/>

    <!-- TILE 3: funnel / horizontal bars -->
    <rect x="90" y="315" width="490" height="215" rx="14" fill="#1E4866" stroke="#356287" stroke-width="1.5"/>
    <rect x="112" y="337" width="160" height="12" rx="5" fill="#3a6b91"/>
    <rect x="120" y="368" width="420" height="26" rx="5" fill="#4E79A7"/>
    <rect x="120" y="406" width="320" height="26" rx="5" fill="#59A14F"/>
    <rect x="120" y="444" width="230" height="26" rx="5" fill="#F28E2B"/>
    <rect x="120" y="482" width="150" height="26" rx="5" fill="#E15759"/>

    <!-- TILE 4: KPI cards -->
    <rect x="600" y="315" width="510" height="215" rx="14" fill="#1E4866" stroke="#356287" stroke-width="1.5"/>
    <rect x="624" y="345" width="220" height="76" rx="10" fill="#26557a"/>
    <rect x="644" y="363" width="80" height="22" rx="5" fill="#4E79A7"/>
    <rect x="644" y="395" width="150" height="9" rx="4" fill="#356287"/>
    <rect x="866" y="345" width="220" height="76" rx="10" fill="#26557a"/>
    <rect x="886" y="363" width="60" height="22" rx="5" fill="#F28E2B"/>
    <rect x="886" y="395" width="150" height="9" rx="4" fill="#356287"/>
    <rect x="624" y="437" width="220" height="70" rx="10" fill="#26557a"/>
    <rect x="644" y="455" width="70" height="20" rx="5" fill="#76B7B2"/>
    <rect x="644" y="485" width="150" height="9" rx="4" fill="#356287"/>
    <rect x="866" y="437" width="220" height="70" rx="10" fill="#26557a"/>
    <rect x="886" y="455" width="64" height="20" rx="5" fill="#59A14F"/>
    <rect x="886" y="485" width="150" height="9" rx="4" fill="#356287"/>
  </g>
</svg>
