<svg width="1200" height="675" viewBox="0 0 1200 675" fill="none" xmlns="http://www.w3.org/2000/svg">
  <rect width="1200" height="675" fill="#16344A"/>
  <radialGradient id="tg1" cx="0.82" cy="0.16" r="0.62">
    <stop offset="0" stop-color="#4E79A7" stop-opacity="0.40"/>
    <stop offset="1" stop-color="#4E79A7" stop-opacity="0"/>
  </radialGradient>
  <radialGradient id="tg2" cx="0.12" cy="0.9" r="0.7">
    <stop offset="0" stop-color="#F28E2B" stop-opacity="0.28"/>
    <stop offset="1" stop-color="#F28E2B" stop-opacity="0"/>
  </radialGradient>
  <rect width="1200" height="675" fill="url(#tg1)"/>
  <rect width="1200" height="675" fill="url(#tg2)"/>

  <!-- three mini dashboards (a small wall) -->
  <g opacity="0.96">
    <!-- panel 1: bars -->
    <rect x="430" y="120" width="220" height="180" rx="12" fill="#1E4866" stroke="#356287" stroke-width="1.5"/>
    <rect x="452" y="142" width="90" height="10" rx="4" fill="#5B7E9E"/>
    <rect x="452" y="250" width="26" height="30" rx="3" fill="#4E79A7"/>
    <rect x="486" y="232" width="26" height="48" rx="3" fill="#4E79A7"/>
    <rect x="520" y="208" width="26" height="72" rx="3" fill="#F28E2B"/>
    <rect x="554" y="224" width="26" height="56" rx="3" fill="#4E79A7"/>
    <rect x="588" y="196" width="26" height="84" rx="3" fill="#4E79A7"/>

    <!-- panel 2: line -->
    <rect x="668" y="120" width="240" height="180" rx="12" fill="#1E4866" stroke="#356287" stroke-width="1.5"/>
    <rect x="690" y="142" width="90" height="10" rx="4" fill="#5B7E9E"/>
    <polyline points="690,260 730,240 770,250 810,210 850,225 888,185" fill="none" stroke="#76B7B2" stroke-width="3.5" stroke-linecap="round" stroke-linejoin="round"/>
    <polyline points="690,275 730,268 770,260 810,262 850,250 888,255" fill="none" stroke="#E15759" stroke-width="3" stroke-linecap="round" stroke-linejoin="round"/>

    <!-- panel 3: funnel -->
    <rect x="926" y="120" width="214" height="180" rx="12" fill="#1E4866" stroke="#356287" stroke-width="1.5"/>
    <rect x="948" y="142" width="90" height="10" rx="4" fill="#5B7E9E"/>
    <rect x="948" y="176" width="170" height="20" rx="3" fill="#4E79A7"/>
    <rect x="948" y="206" width="128" height="20" rx="3" fill="#59A14F"/>
    <rect x="948" y="236" width="92" height="20" rx="3" fill="#F28E2B"/>
    <rect x="948" y="266" width="60" height="20" rx="3" fill="#E15759"/>

    <!-- KPI strip -->
    <g>
      <rect x="430" y="330" width="166" height="70" rx="10" fill="#1E4866"/>
      <rect x="448" y="350" width="60" height="18" rx="4" fill="#4E79A7"/>
      <rect x="448" y="378" width="110" height="8" rx="4" fill="#3A5E7E"/>
      <rect x="612" y="330" width="166" height="70" rx="10" fill="#1E4866"/>
      <rect x="630" y="350" width="50" height="18" rx="4" fill="#F28E2B"/>
      <rect x="630" y="378" width="110" height="8" rx="4" fill="#3A5E7E"/>
      <rect x="794" y="330" width="166" height="70" rx="10" fill="#1E4866"/>
      <rect x="812" y="350" width="56" height="18" rx="4" fill="#76B7B2"/>
      <rect x="812" y="378" width="110" height="8" rx="4" fill="#3A5E7E"/>
      <rect x="976" y="330" width="164" height="70" rx="10" fill="#1E4866"/>
      <rect x="994" y="350" width="52" height="18" rx="4" fill="#59A14F"/>
      <rect x="994" y="378" width="108" height="8" rx="4" fill="#3A5E7E"/>
    </g>
  </g>

  <!-- mini bars (upper-left accent) -->
  <g opacity="0.5">
    <rect x="92" y="100" width="34" height="64" rx="4" fill="#4E79A7"/>
    <rect x="138" y="128" width="34" height="36" rx="4" fill="#F28E2B"/>
    <rect x="184" y="84" width="34" height="80" rx="4" fill="#76B7B2"/>
  </g>
</svg>
